<?xml version="1.0" standalone="no"?>
<!DOCTYPE svg PUBLIC "-//W3C//DTD SVG 20010904//EN"
 "http://www.w3.org/TR/2001/REC-SVG-20010904/DTD/svg10.dtd">
<svg version="1.0" xmlns="http://www.w3.org/2000/svg"
 width="800.000000pt" height="800.000000pt" viewBox="0 0 800.000000 800.000000"
 preserveAspectRatio="xMidYMid meet">

<g transform="translate(800.000000,800.000000) scale(-0.100000,-0.100000)"
fill="#000000" stroke="none">
<path d="M5705 7260 c-10 -11 -32 -80 -52 -167 -18 -81 -36 -155 -38 -163 -4
-13 -31 -10 -192 22 -492 99 -906 139 -1423 139 -640 0 -1195 -70 -1795 -226
-313 -81 -351 -98 -375 -171 -18 -54 -5 -99 37 -131 53 -41 114 -38 293 13
795 227 1667 302 2520 219 276 -27 839 -121 863 -144 4 -4 -7 -66 -23 -138
-32 -140 -31 -171 9 -192 36 -20 64 -11 190 58 69 38 199 105 288 150 89 44
167 89 173 100 22 42 11 82 -52 185 -94 155 -267 412 -295 441 -33 32 -101 35
-128 5z"/>
<path d="M3900 6339 c-148 -18 -289 -120 -362 -263 -11 -22 -155 -436 -320
-920 -164 -485 -321 -947 -349 -1027 l-50 -145 -77 -18 c-246 -56 -442 -182
-596 -381 -196 -253 -299 -540 -313 -871 -9 -236 23 -425 122 -714 195 -566
538 -937 1090 -1175 690 -299 1179 -231 1664 230 113 108 161 170 253 323 173
291 483 988 683 1538 45 124 47 132 42 211 -4 63 -12 97 -34 145 -66 140 -204
242 -345 255 l-67 6 6 87 c7 105 -6 170 -55 263 -87 169 -287 269 -475 238
-38 -6 -72 -10 -74 -7 -2 2 -8 33 -13 69 -13 89 -49 166 -107 228 -59 63 -103
92 -182 119 -78 26 -205 27 -278 1 -29 -10 -53 -14 -53 -9 0 5 88 280 195 611
108 331 201 632 207 669 23 133 -21 289 -110 389 -98 110 -252 166 -402 148z
m178 -225 c96 -48 150 -149 139 -260 -3 -29 -139 -464 -301 -966 -163 -502
-296 -929 -296 -949 0 -70 66 -113 132 -86 29 12 46 36 110 148 42 74 87 157
101 185 56 111 134 164 241 164 139 -1 229 -93 228 -235 0 -46 -11 -90 -47
-189 -52 -143 -54 -180 -8 -216 31 -24 89 -26 121 -4 12 8 33 39 47 69 46 96
130 149 240 149 59 0 79 -4 124 -29 63 -35 105 -82 126 -144 28 -84 21 -122
-70 -375 -47 -130 -85 -243 -85 -251 0 -50 52 -95 109 -95 52 0 75 31 121 160
24 67 50 128 58 137 17 16 91 12 164 -9 82 -24 158 -125 158 -211 0 -63 -231
-652 -425 -1082 -107 -239 -254 -522 -330 -636 -97 -146 -288 -317 -470 -422
-170 -98 -375 -140 -576 -118 -330 36 -732 202 -1004 416 -289 228 -489 562
-606 1014 -98 379 -21 837 193 1148 101 146 235 250 397 307 66 24 73 25 68 9
-3 -10 -55 -166 -116 -346 -77 -227 -109 -335 -105 -352 9 -38 59 -75 101 -75
73 0 48 -65 582 1510 272 800 504 1475 517 1500 25 52 99 124 147 145 55 24
155 19 215 -11z"/>
</g>
</svg>
